<svg width="134" height="134" viewBox="0 0 134 134" fill="none" xmlns="http://www.w3.org/2000/svg">
<path d="M114.472 19.4973C108.298 13.2938 100.945 8.37511 92.8405 5.02778C84.7365 1.68044 76.0439 -0.0285632 67.2693 0.000361096C30.5035 0.000361096 0.538695 29.8153 0.538695 66.3972C0.538695 78.1222 3.63618 89.5121 9.42714 99.5621L0 134L35.3518 124.754C45.1156 130.047 56.0915 132.861 67.2693 132.861C104.035 132.861 134 103.046 134 66.4642C134 48.7092 127.064 32.0263 114.472 19.4973ZM67.2693 121.605C57.3035 121.605 47.5397 118.925 38.9879 113.9L36.9678 112.694L15.9588 118.188L21.5477 97.8201L20.201 95.7431C14.6629 86.9464 11.7228 76.7773 11.7166 66.3972C11.7166 35.9793 36.6312 11.1893 67.202 11.1893C82.0161 11.1893 95.9548 16.9513 106.392 27.4033C111.561 32.5212 115.657 38.6093 118.443 45.3145C121.228 52.0198 122.648 59.2087 122.62 66.4642C122.755 96.8821 97.8402 121.605 67.2693 121.605ZM97.7055 80.3331C96.0221 79.5292 87.807 75.5092 86.3256 74.9062C84.7769 74.3702 83.6995 74.1022 82.5548 75.7102C81.41 77.3852 78.2452 81.1372 77.3025 82.2091C76.3598 83.3481 75.3497 83.4821 73.6663 82.6111C71.9829 81.8071 66.596 79.9982 60.2663 74.3702C55.2834 69.9482 51.9839 64.5212 50.9739 62.8462C50.0312 61.1712 50.8392 60.3002 51.7146 59.4292C52.4553 58.6922 53.398 57.4862 54.206 56.5482C55.0141 55.6102 55.3508 54.8732 55.8894 53.8012C56.4281 52.6622 56.1588 51.7242 55.7548 50.9202C55.3507 50.1162 51.9839 41.9423 50.6372 38.5923C49.2904 35.3763 47.8764 35.7783 46.8663 35.7113H43.6342C42.4894 35.7113 40.7387 36.1133 39.1899 37.7883C37.7085 39.4633 33.399 43.4832 33.399 51.6572C33.399 59.8312 39.392 67.7372 40.2 68.8092C41.008 69.9482 51.9839 86.6981 68.6834 93.8671C72.6563 95.6091 75.7538 96.6141 78.1779 97.3511C82.1507 98.6241 85.7869 98.4231 88.6824 98.0211C91.9146 97.5521 98.5809 94.0011 99.9276 90.1151C101.342 86.2291 101.342 82.9461 100.87 82.2091C100.399 81.4722 99.3889 81.1371 97.7055 80.3331Z" fill="#5BCD80"/>
</svg>
