<svg width="756" height="896" viewBox="0 0 756 896" fill="none" xmlns="http://www.w3.org/2000/svg">
<rect width="756" height="896" fill="white"/>
<path d="M156.749 259.926V257.36C156.749 256.581 156.886 255.754 157.162 254.879C157.447 253.996 157.856 253.145 158.388 252.327C158.93 251.501 159.581 250.783 160.341 250.175L162.166 251.657C161.567 252.513 161.045 253.406 160.598 254.338C160.161 255.26 159.942 256.248 159.942 257.303V259.926H156.749ZM164.048 259.926V257.36C164.048 256.581 164.186 255.754 164.461 254.879C164.747 253.996 165.155 253.145 165.688 252.327C166.229 251.501 166.88 250.783 167.641 250.175L169.466 251.657C168.867 252.513 168.344 253.406 167.897 254.338C167.46 255.26 167.242 256.248 167.242 257.303V259.926H164.048ZM169.747 280H166.041L176.762 250.802H180.412L191.133 280H187.426L178.701 255.421H178.473L169.747 280ZM171.116 268.595H186.057V271.731H171.116V268.595ZM202.171 258.102V260.953H190.823V258.102H202.171ZM194.131 252.855H197.495V273.727C197.495 274.677 197.633 275.39 197.909 275.866C198.194 276.331 198.555 276.645 198.992 276.806C199.439 276.959 199.909 277.035 200.404 277.035C200.774 277.035 201.078 277.016 201.316 276.978C201.554 276.93 201.744 276.892 201.886 276.863L202.571 279.886C202.342 279.971 202.024 280.057 201.615 280.143C201.207 280.238 200.689 280.285 200.061 280.285C199.111 280.285 198.179 280.081 197.267 279.672C196.364 279.263 195.613 278.641 195.014 277.804C194.425 276.968 194.131 275.913 194.131 274.639V252.855ZM214.974 280.456C212.864 280.456 211.044 279.99 209.514 279.059C207.993 278.118 206.819 276.806 205.992 275.124C205.175 273.432 204.766 271.465 204.766 269.222C204.766 266.979 205.175 265.002 205.992 263.291C206.819 261.571 207.969 260.231 209.443 259.271C210.925 258.301 212.655 257.816 214.632 257.816C215.773 257.816 216.899 258.006 218.011 258.387C219.123 258.767 220.135 259.385 221.048 260.24C221.96 261.086 222.687 262.207 223.229 263.605C223.771 265.002 224.042 266.722 224.042 268.766V270.191H207.162V267.283H220.62C220.62 266.047 220.373 264.945 219.879 263.975C219.394 263.006 218.7 262.241 217.797 261.68C216.904 261.119 215.849 260.839 214.632 260.839C213.292 260.839 212.132 261.171 211.153 261.837C210.184 262.493 209.438 263.348 208.915 264.403C208.392 265.458 208.131 266.589 208.131 267.796V269.735C208.131 271.389 208.416 272.791 208.986 273.941C209.566 275.081 210.369 275.951 211.396 276.55C212.422 277.139 213.615 277.434 214.974 277.434C215.858 277.434 216.657 277.31 217.369 277.063C218.092 276.806 218.714 276.426 219.237 275.923C219.76 275.409 220.164 274.772 220.449 274.012L223.699 274.925C223.357 276.027 222.782 276.997 221.974 277.833C221.167 278.66 220.169 279.306 218.98 279.772C217.792 280.228 216.457 280.456 214.974 280.456ZM231.32 266.827V280H227.955V258.102H231.206V261.523H231.491C232.004 260.411 232.784 259.518 233.829 258.843C234.875 258.159 236.224 257.816 237.878 257.816C239.361 257.816 240.658 258.121 241.77 258.729C242.882 259.328 243.747 260.24 244.365 261.466C244.983 262.683 245.292 264.222 245.292 266.085V280H241.927V266.313C241.927 264.593 241.48 263.253 240.587 262.293C239.694 261.324 238.467 260.839 236.909 260.839C235.835 260.839 234.875 261.072 234.029 261.537C233.192 262.003 232.532 262.683 232.047 263.576C231.562 264.47 231.32 265.553 231.32 266.827ZM258.505 280.456C256.68 280.456 255.069 279.995 253.671 279.073C252.274 278.142 251.181 276.83 250.392 275.138C249.604 273.437 249.209 271.427 249.209 269.108C249.209 266.808 249.604 264.812 250.392 263.12C251.181 261.428 252.279 260.121 253.686 259.199C255.092 258.277 256.718 257.816 258.562 257.816C259.987 257.816 261.114 258.054 261.94 258.529C262.777 258.995 263.414 259.527 263.851 260.126C264.298 260.715 264.644 261.2 264.892 261.58H265.177V250.802H268.541V280H265.291V276.635H264.892C264.644 277.035 264.293 277.538 263.837 278.147C263.38 278.745 262.729 279.282 261.883 279.758C261.037 280.223 259.911 280.456 258.505 280.456ZM258.961 277.434C260.31 277.434 261.451 277.082 262.382 276.379C263.314 275.666 264.022 274.682 264.507 273.428C264.991 272.163 265.234 270.705 265.234 269.051C265.234 267.416 264.996 265.986 264.521 264.759C264.046 263.524 263.342 262.564 262.411 261.88C261.479 261.186 260.329 260.839 258.961 260.839C257.535 260.839 256.347 261.205 255.397 261.937C254.456 262.659 253.747 263.643 253.272 264.888C252.807 266.123 252.574 267.511 252.574 269.051C252.574 270.61 252.811 272.026 253.287 273.299C253.771 274.563 254.484 275.571 255.425 276.322C256.375 277.063 257.554 277.434 258.961 277.434ZM273.966 280V258.102H277.331V280H273.966ZM275.677 254.452C275.021 254.452 274.456 254.228 273.981 253.782C273.515 253.335 273.282 252.798 273.282 252.171C273.282 251.543 273.515 251.006 273.981 250.56C274.456 250.113 275.021 249.89 275.677 249.89C276.333 249.89 276.894 250.113 277.359 250.56C277.835 251.006 278.072 251.543 278.072 252.171C278.072 252.798 277.835 253.335 277.359 253.782C276.894 254.228 276.333 254.452 275.677 254.452ZM282.289 280V258.102H285.54V261.523H285.825C286.281 260.354 287.018 259.446 288.035 258.8C289.052 258.144 290.273 257.816 291.699 257.816C293.143 257.816 294.346 258.144 295.306 258.8C296.275 259.446 297.031 260.354 297.572 261.523H297.8C298.361 260.392 299.202 259.494 300.324 258.829C301.445 258.154 302.79 257.816 304.359 257.816C306.317 257.816 307.918 258.429 309.163 259.656C310.408 260.872 311.031 262.768 311.031 265.344V280H307.666V265.344C307.666 263.728 307.224 262.573 306.34 261.88C305.456 261.186 304.416 260.839 303.218 260.839C301.678 260.839 300.486 261.305 299.64 262.236C298.794 263.158 298.371 264.327 298.371 265.743V280H294.949V265.002C294.949 263.757 294.545 262.754 293.737 261.994C292.929 261.224 291.889 260.839 290.615 260.839C289.741 260.839 288.923 261.072 288.163 261.537C287.412 262.003 286.804 262.649 286.338 263.476C285.882 264.294 285.654 265.239 285.654 266.313V280H282.289ZM325.16 280.456C323.05 280.456 321.229 279.99 319.699 279.059C318.179 278.118 317.005 276.806 316.178 275.124C315.36 273.432 314.952 271.465 314.952 269.222C314.952 266.979 315.36 265.002 316.178 263.291C317.005 261.571 318.155 260.231 319.628 259.271C321.111 258.301 322.841 257.816 324.817 257.816C325.958 257.816 327.084 258.006 328.196 258.387C329.308 258.767 330.321 259.385 331.233 260.24C332.145 261.086 332.873 262.207 333.414 263.605C333.956 265.002 334.227 266.722 334.227 268.766V270.191H317.347V267.283H330.805C330.805 266.047 330.558 264.945 330.064 263.975C329.579 263.006 328.885 262.241 327.982 261.68C327.089 261.119 326.034 260.839 324.817 260.839C323.477 260.839 322.318 261.171 321.339 261.837C320.369 262.493 319.623 263.348 319.1 264.403C318.578 265.458 318.316 266.589 318.316 267.796V269.735C318.316 271.389 318.601 272.791 319.172 273.941C319.752 275.081 320.555 275.951 321.581 276.55C322.608 277.139 323.8 277.434 325.16 277.434C326.044 277.434 326.842 277.31 327.555 277.063C328.277 276.806 328.9 276.426 329.422 275.923C329.945 275.409 330.349 274.772 330.634 274.012L333.885 274.925C333.543 276.027 332.968 276.997 332.16 277.833C331.352 278.66 330.354 279.306 329.166 279.772C327.978 280.228 326.642 280.456 325.16 280.456ZM341.505 266.827V280H338.141V258.102H341.391V261.523H341.676C342.19 260.411 342.969 259.518 344.015 258.843C345.06 258.159 346.41 257.816 348.064 257.816C349.546 257.816 350.844 258.121 351.956 258.729C353.068 259.328 353.933 260.24 354.55 261.466C355.168 262.683 355.477 264.222 355.477 266.085V280H352.112V266.313C352.112 264.593 351.666 263.253 350.772 262.293C349.879 261.324 348.653 260.839 347.094 260.839C346.02 260.839 345.06 261.072 344.214 261.537C343.378 262.003 342.717 262.683 342.232 263.576C341.748 264.47 341.505 265.553 341.505 266.827ZM369.944 258.102V260.953H358.596V258.102H369.944ZM361.904 252.855H365.268V273.727C365.268 274.677 365.406 275.39 365.682 275.866C365.967 276.331 366.328 276.645 366.765 276.806C367.212 276.959 367.682 277.035 368.177 277.035C368.547 277.035 368.851 277.016 369.089 276.978C369.327 276.93 369.517 276.892 369.659 276.863L370.344 279.886C370.116 279.971 369.797 280.057 369.388 280.143C368.98 280.238 368.462 280.285 367.834 280.285C366.884 280.285 365.953 280.081 365.04 279.672C364.137 279.263 363.386 278.641 362.788 277.804C362.198 276.968 361.904 275.913 361.904 274.639V252.855ZM382.462 280.456C380.485 280.456 378.751 279.986 377.259 279.045C375.776 278.104 374.616 276.787 373.78 275.096C372.953 273.404 372.539 271.427 372.539 269.165C372.539 266.884 372.953 264.893 373.78 263.191C374.616 261.49 375.776 260.169 377.259 259.228C378.751 258.287 380.485 257.816 382.462 257.816C384.439 257.816 386.169 258.287 387.652 259.228C389.144 260.169 390.304 261.49 391.13 263.191C391.967 264.893 392.385 266.884 392.385 269.165C392.385 271.427 391.967 273.404 391.13 275.096C390.304 276.787 389.144 278.104 387.652 279.045C386.169 279.986 384.439 280.456 382.462 280.456ZM382.462 277.434C383.964 277.434 385.2 277.049 386.169 276.279C387.138 275.509 387.856 274.497 388.322 273.242C388.788 271.988 389.02 270.629 389.02 269.165C389.02 267.701 388.788 266.337 388.322 265.073C387.856 263.809 387.138 262.787 386.169 262.008C385.2 261.229 383.964 260.839 382.462 260.839C380.961 260.839 379.725 261.229 378.755 262.008C377.786 262.787 377.068 263.809 376.603 265.073C376.137 266.337 375.904 267.701 375.904 269.165C375.904 270.629 376.137 271.988 376.603 273.242C377.068 274.497 377.786 275.509 378.755 276.279C379.725 277.049 380.961 277.434 382.462 277.434ZM415.585 280.456C413.475 280.456 411.655 279.99 410.125 279.059C408.604 278.118 407.43 276.806 406.603 275.124C405.786 273.432 405.377 271.465 405.377 269.222C405.377 266.979 405.786 265.002 406.603 263.291C407.43 261.571 408.58 260.231 410.053 259.271C411.536 258.301 413.266 257.816 415.243 257.816C416.383 257.816 417.51 258.006 418.622 258.387C419.734 258.767 420.746 259.385 421.658 260.24C422.571 261.086 423.298 262.207 423.84 263.605C424.381 265.002 424.652 266.722 424.652 268.766V270.191H407.772V267.283H421.231C421.231 266.047 420.984 264.945 420.489 263.975C420.005 263.006 419.311 262.241 418.408 261.68C417.514 261.119 416.459 260.839 415.243 260.839C413.903 260.839 412.743 261.171 411.764 261.837C410.795 262.493 410.049 263.348 409.526 264.403C409.003 265.458 408.742 266.589 408.742 267.796V269.735C408.742 271.389 409.027 272.791 409.597 273.941C410.177 275.081 410.98 275.951 412.007 276.55C413.033 277.139 414.226 277.434 415.585 277.434C416.469 277.434 417.267 277.31 417.98 277.063C418.702 276.806 419.325 276.426 419.848 275.923C420.371 275.409 420.774 274.772 421.06 274.012L424.31 274.925C423.968 276.027 423.393 276.997 422.585 277.833C421.777 278.66 420.779 279.306 419.591 279.772C418.403 280.228 417.068 280.456 415.585 280.456ZM430.487 258.102L435.734 267.055L440.98 258.102H444.858L437.787 269.051L444.858 280H440.98L435.734 271.503L430.487 280H426.609L433.567 269.051L426.609 258.102H430.487ZM456.449 280.456C454.396 280.456 452.628 279.971 451.146 279.002C449.663 278.033 448.522 276.697 447.724 274.996C446.926 273.295 446.526 271.351 446.526 269.165C446.526 266.941 446.935 264.978 447.753 263.277C448.579 261.566 449.729 260.231 451.203 259.271C452.685 258.301 454.415 257.816 456.392 257.816C457.932 257.816 459.32 258.102 460.555 258.672C461.791 259.242 462.803 260.04 463.592 261.067C464.381 262.093 464.87 263.291 465.06 264.66H461.696C461.439 263.662 460.869 262.778 459.985 262.008C459.11 261.229 457.932 260.839 456.449 260.839C455.138 260.839 453.988 261.181 452.999 261.865C452.02 262.54 451.255 263.495 450.704 264.731C450.162 265.957 449.891 267.397 449.891 269.051C449.891 270.743 450.157 272.216 450.689 273.47C451.231 274.725 451.992 275.699 452.971 276.393C453.959 277.087 455.119 277.434 456.449 277.434C457.324 277.434 458.117 277.282 458.83 276.978C459.543 276.673 460.146 276.236 460.641 275.666C461.135 275.096 461.487 274.411 461.696 273.613H465.06C464.87 274.906 464.4 276.07 463.649 277.106C462.908 278.132 461.924 278.95 460.698 279.558C459.481 280.157 458.065 280.456 456.449 280.456ZM477.956 280.456C475.846 280.456 474.026 279.99 472.496 279.059C470.975 278.118 469.801 276.806 468.974 275.124C468.157 273.432 467.748 271.465 467.748 269.222C467.748 266.979 468.157 265.002 468.974 263.291C469.801 261.571 470.951 260.231 472.424 259.271C473.907 258.301 475.637 257.816 477.614 257.816C478.754 257.816 479.881 258.006 480.993 258.387C482.105 258.767 483.117 259.385 484.029 260.24C484.942 261.086 485.669 262.207 486.211 263.605C486.752 265.002 487.023 266.722 487.023 268.766V270.191H470.143V267.283H483.602C483.602 266.047 483.354 264.945 482.86 263.975C482.376 263.006 481.682 262.241 480.779 261.68C479.885 261.119 478.83 260.839 477.614 260.839C476.274 260.839 475.114 261.171 474.135 261.837C473.166 262.493 472.42 263.348 471.897 264.403C471.374 265.458 471.113 266.589 471.113 267.796V269.735C471.113 271.389 471.398 272.791 471.968 273.941C472.548 275.081 473.351 275.951 474.377 276.55C475.404 277.139 476.597 277.434 477.956 277.434C478.84 277.434 479.638 277.31 480.351 277.063C481.073 276.806 481.696 276.426 482.219 275.923C482.741 275.409 483.145 274.772 483.431 274.012L486.681 274.925C486.339 276.027 485.764 276.997 484.956 277.833C484.148 278.66 483.15 279.306 481.962 279.772C480.774 280.228 479.439 280.456 477.956 280.456ZM494.302 250.802V280H490.937V250.802H494.302ZM508.441 280.456C506.331 280.456 504.511 279.99 502.981 279.059C501.46 278.118 500.286 276.806 499.459 275.124C498.642 273.432 498.233 271.465 498.233 269.222C498.233 266.979 498.642 265.002 499.459 263.291C500.286 261.571 501.436 260.231 502.91 259.271C504.392 258.301 506.122 257.816 508.099 257.816C509.24 257.816 510.366 258.006 511.478 258.387C512.59 258.767 513.602 259.385 514.515 260.24C515.427 261.086 516.154 262.207 516.696 263.605C517.238 265.002 517.509 266.722 517.509 268.766V270.191H500.628V267.283H514.087C514.087 266.047 513.84 264.945 513.346 263.975C512.861 263.006 512.167 262.241 511.264 261.68C510.371 261.119 509.316 260.839 508.099 260.839C506.759 260.839 505.599 261.171 504.62 261.837C503.651 262.493 502.905 263.348 502.382 264.403C501.859 265.458 501.598 266.589 501.598 267.796V269.735C501.598 271.389 501.883 272.791 502.453 273.941C503.033 275.081 503.836 275.951 504.863 276.55C505.889 277.139 507.082 277.434 508.441 277.434C509.325 277.434 510.123 277.31 510.836 277.063C511.559 276.806 512.181 276.426 512.704 275.923C513.227 275.409 513.631 274.772 513.916 274.012L517.166 274.925C516.824 276.027 516.249 276.997 515.441 277.833C514.633 278.66 513.635 279.306 512.447 279.772C511.259 280.228 509.924 280.456 508.441 280.456ZM524.787 266.827V280H521.422V258.102H524.673V261.523H524.958C525.471 260.411 526.251 259.518 527.296 258.843C528.342 258.159 529.691 257.816 531.345 257.816C532.828 257.816 534.125 258.121 535.237 258.729C536.349 259.328 537.214 260.24 537.832 261.466C538.45 262.683 538.759 264.222 538.759 266.085V280H535.394V266.313C535.394 264.593 534.947 263.253 534.054 262.293C533.16 261.324 531.934 260.839 530.376 260.839C529.302 260.839 528.342 261.072 527.496 261.537C526.659 262.003 525.999 262.683 525.514 263.576C525.029 264.47 524.787 265.553 524.787 266.827ZM553.226 258.102V260.953H541.878V258.102H553.226ZM545.185 252.855H548.55V273.727C548.55 274.677 548.688 275.39 548.963 275.866C549.248 276.331 549.61 276.645 550.047 276.806C550.493 276.959 550.964 277.035 551.458 277.035C551.829 277.035 552.133 277.016 552.371 276.978C552.608 276.93 552.798 276.892 552.941 276.863L553.625 279.886C553.397 279.971 553.079 280.057 552.67 280.143C552.261 280.238 551.743 280.285 551.116 280.285C550.166 280.285 549.234 280.081 548.322 279.672C547.419 279.263 546.668 278.641 546.069 277.804C545.48 276.968 545.185 275.913 545.185 274.639V252.855ZM566.029 280.456C563.919 280.456 562.099 279.99 560.569 279.059C559.048 278.118 557.874 276.806 557.047 275.124C556.23 273.432 555.821 271.465 555.821 269.222C555.821 266.979 556.23 265.002 557.047 263.291C557.874 261.571 559.024 260.231 560.497 259.271C561.98 258.301 563.71 257.816 565.687 257.816C566.827 257.816 567.954 258.006 569.066 258.387C570.178 258.767 571.19 259.385 572.102 260.24C573.015 261.086 573.742 262.207 574.284 263.605C574.825 265.002 575.096 266.722 575.096 268.766V270.191H558.216V267.283H571.675C571.675 266.047 571.427 264.945 570.933 263.975C570.449 263.006 569.755 262.241 568.852 261.68C567.958 261.119 566.903 260.839 565.687 260.839C564.347 260.839 563.187 261.171 562.208 261.837C561.239 262.493 560.493 263.348 559.97 264.403C559.447 265.458 559.186 266.589 559.186 267.796V269.735C559.186 271.389 559.471 272.791 560.041 273.941C560.621 275.081 561.424 275.951 562.45 276.55C563.477 277.139 564.67 277.434 566.029 277.434C566.913 277.434 567.711 277.31 568.424 277.063C569.146 276.806 569.769 276.426 570.292 275.923C570.814 275.409 571.218 274.772 571.504 274.012L574.754 274.925C574.412 276.027 573.837 276.997 573.029 277.833C572.221 278.66 571.223 279.306 570.035 279.772C568.847 280.228 567.512 280.456 566.029 280.456ZM583.458 250.802L583.173 271.788H579.865L579.58 250.802H583.458ZM581.519 280.228C580.816 280.228 580.212 279.976 579.709 279.472C579.205 278.969 578.953 278.365 578.953 277.662C578.953 276.959 579.205 276.355 579.709 275.851C580.212 275.348 580.816 275.096 581.519 275.096C582.223 275.096 582.826 275.348 583.33 275.851C583.834 276.355 584.085 276.959 584.085 277.662C584.085 278.128 583.967 278.555 583.729 278.945C583.501 279.335 583.192 279.648 582.802 279.886C582.422 280.114 581.994 280.228 581.519 280.228ZM591.945 250.802V253.368C591.945 254.148 591.802 254.979 591.517 255.863C591.242 256.738 590.833 257.588 590.291 258.415C589.759 259.233 589.113 259.945 588.352 260.554L586.527 259.071C587.126 258.216 587.644 257.327 588.081 256.405C588.528 255.473 588.751 254.48 588.751 253.425V250.802H591.945ZM599.244 250.802V253.368C599.244 254.148 599.102 254.979 598.817 255.863C598.541 256.738 598.132 257.588 597.591 258.415C597.058 259.233 596.412 259.945 595.652 260.554L593.827 259.071C594.426 258.216 594.944 257.327 595.381 256.405C595.827 255.473 596.051 254.48 596.051 253.425V250.802H599.244Z" fill="#3D3D3D"/>
<path d="M316.26 767.514L306.883 766.152L302.691 757.657C302.576 757.425 302.388 757.236 302.155 757.122C301.572 756.834 300.863 757.074 300.571 757.657L296.379 766.152L287.001 767.514C286.743 767.551 286.507 767.673 286.326 767.858C286.107 768.082 285.986 768.385 285.99 768.698C285.994 769.012 286.123 769.311 286.348 769.53L293.132 776.142L291.529 785.478C291.492 785.696 291.516 785.919 291.599 786.123C291.682 786.327 291.82 786.504 291.999 786.634C292.177 786.763 292.388 786.84 292.608 786.856C292.828 786.872 293.048 786.825 293.243 786.723L301.631 782.315L310.018 786.723C310.247 786.844 310.513 786.885 310.768 786.841C311.411 786.73 311.843 786.121 311.732 785.478L310.129 776.142L316.914 769.53C317.098 769.349 317.22 769.113 317.257 768.854C317.357 768.208 316.906 767.61 316.26 767.514Z" fill="#B1A369"/>
<path d="M354.647 767.514L345.269 766.152L341.077 757.657C340.963 757.425 340.775 757.236 340.542 757.122C339.958 756.834 339.249 757.074 338.957 757.657L334.766 766.152L325.388 767.514C325.13 767.551 324.893 767.673 324.712 767.858C324.493 768.082 324.373 768.385 324.377 768.698C324.381 769.012 324.51 769.311 324.734 769.53L331.519 776.142L329.916 785.478C329.879 785.696 329.903 785.919 329.986 786.123C330.069 786.327 330.207 786.504 330.385 786.634C330.564 786.763 330.775 786.84 330.995 786.856C331.215 786.872 331.435 786.825 331.63 786.723L340.017 782.315L348.405 786.723C348.634 786.844 348.9 786.885 349.155 786.841C349.797 786.73 350.23 786.121 350.119 785.478L348.516 776.142L355.3 769.53C355.485 769.349 355.607 769.113 355.644 768.854C355.744 768.208 355.293 767.61 354.647 767.514Z" fill="#B1A369"/>
<path d="M393.045 767.514L383.668 766.152L379.476 757.657C379.361 757.425 379.173 757.236 378.94 757.122C378.357 756.834 377.648 757.074 377.356 757.657L373.164 766.152L363.787 767.514C363.528 767.551 363.292 767.673 363.111 767.858C362.892 768.082 362.771 768.385 362.775 768.698C362.78 769.012 362.908 769.311 363.133 769.53L369.918 776.142L368.315 785.478C368.277 785.696 368.301 785.919 368.384 786.123C368.467 786.327 368.605 786.504 368.784 786.634C368.962 786.763 369.173 786.84 369.393 786.856C369.613 786.872 369.833 786.825 370.028 786.723L378.416 782.315L386.803 786.723C387.032 786.844 387.298 786.885 387.553 786.841C388.196 786.73 388.628 786.121 388.517 785.478L386.914 776.142L393.699 769.53C393.884 769.349 394.005 769.113 394.042 768.854C394.142 768.208 393.692 767.61 393.045 767.514Z" fill="#B1A369"/>
<path d="M431.43 767.514L422.053 766.152L417.861 757.657C417.746 757.425 417.558 757.236 417.325 757.122C416.742 756.834 416.032 757.074 415.741 757.657L411.549 766.152L402.171 767.514C401.913 767.551 401.676 767.673 401.495 767.858C401.277 768.082 401.156 768.385 401.16 768.698C401.164 769.012 401.293 769.311 401.518 769.53L408.302 776.142L406.699 785.478C406.662 785.696 406.686 785.919 406.769 786.123C406.852 786.327 406.99 786.504 407.169 786.634C407.347 786.763 407.558 786.84 407.778 786.856C407.998 786.872 408.218 786.825 408.413 786.723L416.801 782.315L425.188 786.723C425.417 786.844 425.683 786.885 425.938 786.841C426.581 786.73 427.013 786.121 426.902 785.478L425.299 776.142L432.084 769.53C432.268 769.349 432.39 769.113 432.427 768.854C432.527 768.208 432.076 767.61 431.43 767.514Z" fill="#B1A369"/>
<path d="M469.823 767.514L460.445 766.152L456.253 757.657C456.139 757.425 455.95 757.236 455.718 757.122C455.134 756.834 454.425 757.074 454.133 757.657L449.941 766.152L440.564 767.514C440.306 767.551 440.069 767.673 439.888 767.858C439.669 768.082 439.549 768.385 439.553 768.698C439.557 769.012 439.686 769.311 439.91 769.53L446.695 776.142L445.092 785.478C445.055 785.696 445.079 785.919 445.161 786.123C445.244 786.327 445.383 786.504 445.561 786.634C445.74 786.763 445.951 786.84 446.171 786.856C446.391 786.872 446.611 786.825 446.806 786.723L455.193 782.315L463.581 786.723C463.81 786.844 464.076 786.885 464.331 786.841C464.973 786.73 465.405 786.121 465.295 785.478L463.692 776.142L470.476 769.53C470.661 769.349 470.783 769.113 470.82 768.854C470.92 768.208 470.469 767.61 469.823 767.514Z" fill="#B1A369"/>
<path d="M251.502 163.353C249.147 163.353 246.968 162.971 244.966 162.205C242.994 161.41 241.271 160.306 239.799 158.893C238.357 157.451 237.223 155.773 236.399 153.859C235.575 151.945 235.163 149.84 235.163 147.544C235.163 145.248 235.575 143.143 236.399 141.229C237.223 139.316 238.372 137.652 239.844 136.239C241.316 134.797 243.038 133.693 245.01 132.927C247.012 132.132 249.191 131.735 251.546 131.735C253.93 131.735 256.124 132.147 258.126 132.971C260.157 133.766 261.879 134.959 263.292 136.548L260.422 139.33C259.244 138.094 257.92 137.181 256.448 136.592C254.976 135.974 253.401 135.665 251.722 135.665C249.986 135.665 248.366 135.96 246.865 136.548C245.393 137.137 244.112 137.961 243.023 139.021C241.934 140.081 241.08 141.347 240.462 142.819C239.873 144.262 239.579 145.837 239.579 147.544C239.579 149.252 239.873 150.841 240.462 152.313C241.08 153.756 241.934 155.007 243.023 156.067C244.112 157.127 245.393 157.951 246.865 158.54C248.366 159.129 249.986 159.423 251.722 159.423C253.401 159.423 254.976 159.129 256.448 158.54C257.92 157.922 259.244 156.98 260.422 155.714L263.292 158.496C261.879 160.085 260.157 161.292 258.126 162.117C256.124 162.941 253.916 163.353 251.502 163.353ZM270.36 163L284.359 132.088H288.731L302.774 163H298.137L285.64 134.561H287.406L274.909 163H270.36ZM276.322 155.272L277.514 151.739H294.913L296.194 155.272H276.322ZM313.567 163V132.088H325.623C328.331 132.088 330.642 132.515 332.556 133.369C334.469 134.223 335.941 135.459 336.972 137.078C338.002 138.697 338.517 140.626 338.517 142.863C338.517 145.101 338.002 147.029 336.972 148.648C335.941 150.238 334.469 151.46 332.556 152.313C330.642 153.167 328.331 153.594 325.623 153.594H315.996L317.983 151.563V163H313.567ZM334.234 163L326.373 151.783H331.099L339.047 163H334.234ZM317.983 152.004L315.996 149.84H325.49C328.316 149.84 330.451 149.237 331.893 148.03C333.365 146.793 334.101 145.071 334.101 142.863C334.101 140.655 333.365 138.948 331.893 137.741C330.451 136.534 328.316 135.93 325.49 135.93H315.996L317.983 133.722V152.004ZM351.834 163V132.088H356.25V159.158H372.987V163H351.834ZM397.63 163.353C395.275 163.353 393.082 162.956 391.051 162.161C389.049 161.366 387.312 160.262 385.84 158.849C384.368 157.406 383.22 155.728 382.395 153.815C381.571 151.901 381.159 149.811 381.159 147.544C381.159 145.277 381.571 143.187 382.395 141.273C383.22 139.36 384.368 137.696 385.84 136.283C387.312 134.841 389.049 133.722 391.051 132.927C393.052 132.132 395.246 131.735 397.63 131.735C399.985 131.735 402.149 132.132 404.122 132.927C406.124 133.693 407.861 134.797 409.333 136.239C410.834 137.652 411.982 139.316 412.777 141.229C413.601 143.143 414.014 145.248 414.014 147.544C414.014 149.84 413.601 151.945 412.777 153.859C411.982 155.773 410.834 157.451 409.333 158.893C407.861 160.306 406.124 161.41 404.122 162.205C402.149 162.971 399.985 163.353 397.63 163.353ZM397.63 159.423C399.338 159.423 400.913 159.129 402.355 158.54C403.827 157.951 405.093 157.127 406.153 156.067C407.242 154.978 408.081 153.712 408.67 152.269C409.288 150.827 409.598 149.252 409.598 147.544C409.598 145.837 409.288 144.262 408.67 142.819C408.081 141.376 407.242 140.125 406.153 139.065C405.093 137.976 403.827 137.137 402.355 136.548C400.913 135.96 399.338 135.665 397.63 135.665C395.893 135.665 394.289 135.96 392.817 136.548C391.374 137.137 390.108 137.976 389.019 139.065C387.93 140.125 387.076 141.376 386.458 142.819C385.869 144.262 385.575 145.837 385.575 147.544C385.575 149.252 385.869 150.827 386.458 152.269C387.076 153.712 387.93 154.978 389.019 156.067C390.108 157.127 391.374 157.951 392.817 158.54C394.289 159.129 395.893 159.423 397.63 159.423ZM435.954 163.353C433.599 163.353 431.347 163 429.198 162.293C427.048 161.557 425.356 160.615 424.119 159.467L425.753 156.023C426.931 157.053 428.432 157.907 430.257 158.584C432.083 159.261 433.982 159.6 435.954 159.6C437.75 159.6 439.207 159.394 440.326 158.981C441.445 158.569 442.269 158.01 442.799 157.303C443.329 156.567 443.594 155.743 443.594 154.83C443.594 153.771 443.24 152.917 442.534 152.269C441.857 151.622 440.959 151.106 439.84 150.724C438.751 150.311 437.544 149.958 436.219 149.664C434.894 149.369 433.555 149.031 432.2 148.648C430.876 148.236 429.654 147.721 428.535 147.103C427.446 146.484 426.563 145.66 425.886 144.63C425.209 143.57 424.87 142.215 424.87 140.567C424.87 138.977 425.282 137.52 426.106 136.195C426.96 134.841 428.256 133.766 429.992 132.971C431.759 132.147 433.996 131.735 436.705 131.735C438.501 131.735 440.282 131.97 442.048 132.441C443.814 132.913 445.345 133.59 446.641 134.473L445.183 138.006C443.859 137.122 442.46 136.489 440.988 136.107C439.516 135.695 438.088 135.489 436.705 135.489C434.968 135.489 433.54 135.709 432.421 136.151C431.303 136.592 430.478 137.181 429.948 137.917C429.448 138.653 429.198 139.478 429.198 140.39C429.198 141.48 429.536 142.348 430.213 142.996C430.92 143.643 431.818 144.159 432.907 144.541C434.026 144.924 435.247 145.277 436.572 145.601C437.897 145.895 439.222 146.234 440.547 146.617C441.901 146.999 443.123 147.5 444.212 148.118C445.331 148.736 446.229 149.561 446.906 150.591C447.583 151.622 447.921 152.946 447.921 154.565C447.921 156.126 447.494 157.583 446.641 158.937C445.787 160.262 444.462 161.337 442.666 162.161C440.9 162.956 438.662 163.353 435.954 163.353ZM473.916 163L487.914 132.088H492.286L506.329 163H501.692L489.195 134.561H490.961L478.464 163H473.916ZM479.877 155.272L481.07 151.739H498.469L499.749 155.272H479.877ZM518.986 163.265C518.162 163.265 517.455 162.985 516.867 162.426C516.278 161.837 515.983 161.101 515.983 160.218C515.983 159.335 516.278 158.613 516.867 158.054C517.455 157.495 518.162 157.215 518.986 157.215C519.781 157.215 520.458 157.495 521.018 158.054C521.606 158.613 521.901 159.335 521.901 160.218C521.901 161.101 521.606 161.837 521.018 162.426C520.458 162.985 519.781 163.265 518.986 163.265Z" fill="#B1A369"/>
</svg>
